# xmcd
#
# Track frame offsets: 
#        150
#        12529
#        23605
#        35273
#        45073
#        57025
#        68152
#        77870
#        88750
#        100827
#        112843
#        123551
#        134866
#        145433
#        158313
#        167344
#        179447
#        191359
#        202707
#        213203
#        225219
#        240433
#        252175
#        263555
#        274343
#        285047
#        297003
#
# Disc length: 4126 seconds
#
# Revision: 1
# Processed by: cddbd v1.5.1PL0 Copyright (c) Steve Scherf et al.
# Submitted via: ExactAudioCopy v0.90b4
#
DISCID=58101c1b
DTITLE=Kitty Wells - Queen Of Country Music - Disc 3
DYEAR=1993
DGENRE=Country
TTITLE0=Oh! So Many Years
TTITLE1=One Week Later
TTITLE2=When I'm With You
TTITLE3=Can You Find It In Your Heart
TTITLE4=Repenting
TTITLE5=I Guess I'll Go On Dreaming
TTITLE6=Each Day
TTITLE7=The Pace That Kills
TTITLE8=A Change Of Heart
TTITLE9=Stubborn Heart
TTITLE10=Standing Room Only
TTITLE11=A Mansion On The Hill
TTITLE12=Your Wild Life's Gonna Get You Down
TTITLE13=Right Or Wrong
TTITLE14=The Winner Of Your Heart
TTITLE15=Dancing With A Stranger
TTITLE16=Three Ways (To Love You)
TTITLE17=She's No Angel
TTITLE18=Broken Marriage Vows
TTITLE19=What About You
TTITLE20=Sweeter Than The Flowers
TTITLE21=You Can't Conceal A Broken Heart
TTITLE22=Just When I Needed You
TTITLE23=Lonely Street
TTITLE24=That's Me Without You
TTITLE25=Cheated Out Of Love
TTITLE26=The Waltz Of The Angels
EXTD=
EXTT0=
EXTT1=
EXTT2=
EXTT3=
EXTT4=
EXTT5=
EXTT6=
EXTT7=
EXTT8=
EXTT9=
EXTT10=
EXTT11=
EXTT12=
EXTT13=
EXTT14=
EXTT15=
EXTT16=
EXTT17=
EXTT18=
EXTT19=
EXTT20=
EXTT21=
EXTT22=
EXTT23=
EXTT24=
EXTT25=
EXTT26=
PLAYORDER=
